<mxfile host="app.diagrams.net" modified="2024-02-10T05:51:45.197Z" agent="Mozilla/5.0 (Windows NT 10.0; Win64; x64) AppleWebKit/537.36 (KHTML, like Gecko) Chrome/120.0.0.0 Safari/537.36" etag="eK44p5UP4yCx7NZPmgh-" version="23.1.2" type="github">
  <diagram name="第 1 页" id="TlrLcPImfPQn0JjbF9aS">
    <mxGraphModel dx="2074" dy="3478" grid="1" gridSize="10" guides="1" tooltips="1" connect="1" arrows="1" fold="1" page="1" pageScale="1" pageWidth="827" pageHeight="1169" math="0" shadow="0">
      <root>
        <mxCell id="0" />
        <mxCell id="1" parent="0" />
        <mxCell id="LObKgbLgCiNCiqsxyeOi-16" value="" style="edgeStyle=orthogonalEdgeStyle;rounded=0;orthogonalLoop=1;jettySize=auto;html=1;" edge="1" parent="1" source="LObKgbLgCiNCiqsxyeOi-3" target="LObKgbLgCiNCiqsxyeOi-9">
          <mxGeometry relative="1" as="geometry" />
        </mxCell>
        <mxCell id="LObKgbLgCiNCiqsxyeOi-3" value="Exit the game cleanly" style="rounded=1;whiteSpace=wrap;html=1;shadow=0;comic=0;labelBackgroundColor=none;strokeWidth=1;fontFamily=Verdana;fontSize=12;align=center;arcSize=50;" vertex="1" parent="1">
          <mxGeometry x="275.13" y="-1840" width="142.5" height="50" as="geometry" />
        </mxCell>
        <mxCell id="LObKgbLgCiNCiqsxyeOi-4" value="" style="edgeStyle=orthogonalEdgeStyle;rounded=0;orthogonalLoop=1;jettySize=auto;html=1;entryX=0.5;entryY=0;entryDx=0;entryDy=0;" edge="1" parent="1" source="LObKgbLgCiNCiqsxyeOi-5" target="LObKgbLgCiNCiqsxyeOi-11">
          <mxGeometry relative="1" as="geometry">
            <mxPoint x="342.25" y="-1930" as="targetPoint" />
          </mxGeometry>
        </mxCell>
        <mxCell id="LObKgbLgCiNCiqsxyeOi-5" value="" style="ellipse;whiteSpace=wrap;html=1;rounded=0;shadow=0;comic=0;labelBackgroundColor=none;strokeWidth=1;fillColor=#000000;fontFamily=Verdana;fontSize=12;align=center;" vertex="1" parent="1">
          <mxGeometry x="327.38" y="-2000" width="40" height="40" as="geometry" />
        </mxCell>
        <mxCell id="LObKgbLgCiNCiqsxyeOi-9" value="" style="shape=mxgraph.bpmn.shape;html=1;verticalLabelPosition=bottom;labelBackgroundColor=#ffffff;verticalAlign=top;perimeter=ellipsePerimeter;outline=end;symbol=terminate;rounded=0;shadow=0;comic=0;strokeWidth=1;fontFamily=Verdana;fontSize=12;align=center;" vertex="1" parent="1">
          <mxGeometry x="326.38" y="-1753" width="40" height="40" as="geometry" />
        </mxCell>
        <mxCell id="LObKgbLgCiNCiqsxyeOi-10" value="" style="edgeStyle=orthogonalEdgeStyle;rounded=0;orthogonalLoop=1;jettySize=auto;html=1;" edge="1" parent="1" source="LObKgbLgCiNCiqsxyeOi-11" target="LObKgbLgCiNCiqsxyeOi-3">
          <mxGeometry relative="1" as="geometry">
            <Array as="points">
              <mxPoint x="342" y="-1810" />
              <mxPoint x="342" y="-1810" />
            </Array>
          </mxGeometry>
        </mxCell>
        <mxCell id="LObKgbLgCiNCiqsxyeOi-11" value="Choose the option to exit the game on main menu" style="rounded=1;whiteSpace=wrap;html=1;shadow=0;comic=0;labelBackgroundColor=none;strokeWidth=1;fontFamily=Verdana;fontSize=12;align=center;arcSize=50;" vertex="1" parent="1">
          <mxGeometry x="275.13" y="-1930" width="145.25" height="60" as="geometry" />
        </mxCell>
      </root>
    </mxGraphModel>
  </diagram>
</mxfile>
